name C:/MyDriveSym/Projects/mobilecap/Data\Session20210825_0002\mocap\ForceDataProcessed\walking3_forces.mot
datacolumns 19
datarows 17
range 0.99700000 1.00500000
endheader 
time	R_ground_force_vx	R_ground_force_vy	R_ground_force_vz	R_ground_force_px	R_ground_force_py	R_ground_force_pz	R_ground_torque_x	R_ground_torque_y	R_ground_torque_z	L_ground_force_vx	L_ground_force_vy	L_ground_force_vz	L_ground_force_px	L_ground_force_py	L_ground_force_pz	L_ground_torque_x	L_ground_torque_y	L_ground_torque_z	
          0.99700000	          0.00000000	          0.00000000	          0.00000000	          1.19160100	          0.00000000	         -0.11742200	          0.00000000	          0.00000000	          0.00000000	         24.91189800	        559.29272100	         18.90930200	          0.93828300	          0.00600000	         -0.22612200	          0.00000000	          3.02356400	          0.00000000	
          0.99750000	          0.00000000	          0.00000000	          0.00000000	          1.19307000	          0.00000000	         -0.11740500	          0.00000000	          0.00000000	          0.00000000	         25.15230800	        559.97707300	         18.97926700	          0.93841700	          0.00600000	         -0.22613400	          0.00000000	          3.02186900	          0.00000000	
          0.99800000	          0.00000000	          0.00000000	          0.00000000	          1.19453900	          0.00000000	         -0.11738900	          0.00000000	          0.00000000	          0.00000000	         25.39362700	        560.66275900	         19.04931100	          0.93855100	          0.00600000	         -0.22614500	          0.00000000	          3.02006500	          0.00000000	
          0.99850000	          0.00000000	          0.00000000	          0.00000000	          1.19600800	          0.00000000	         -0.11737200	          0.00000000	          0.00000000	          0.00000000	         25.63585600	        561.34972900	         19.11942800	          0.93868500	          0.00600000	         -0.22615600	          0.00000000	          3.01815400	          0.00000000	
          0.99900000	          0.00000000	          0.00000000	          0.00000000	          1.19747700	          0.00000000	         -0.11735600	          0.00000000	          0.00000000	          0.00000000	         25.87899600	        562.03793100	         19.18961200	          0.93881800	          0.00600000	         -0.22616700	          0.00000000	          3.01613400	          0.00000000	
          0.99950000	          0.00000000	          0.00000000	          0.00000000	          1.19894600	          0.00000000	         -0.11734000	          0.00000000	          0.00000000	          0.00000000	         26.12304500	        562.72731500	         19.25985600	          0.93895100	          0.00600000	         -0.22617800	          0.00000000	          3.01400600	          0.00000000	
          1.00000000	          0.00000000	          0.00000000	          0.00000000	          1.20041500	          0.00000000	         -0.11732300	          0.00000000	          0.00000000	          0.00000000	         26.36800300	        563.41782700	         19.33015400	          0.93908300	          0.00600000	         -0.22618900	          0.00000000	          3.01177100	          0.00000000	
          1.00050000	          0.00000000	          0.00000000	          0.00000000	          1.20188400	          0.00000000	         -0.11730700	          0.00000000	          0.00000000	          0.00000000	         26.61387000	        564.10941500	         19.40049700	          0.93921500	          0.00600000	         -0.22620000	          0.00000000	          3.00942700	          0.00000000	
          1.00100000	          0.00000000	          0.00000000	          0.00000000	          1.20335300	          0.00000000	         -0.11729000	          0.00000000	          0.00000000	          0.00000000	         26.86064600	        564.80202600	         19.47088100	          0.93934700	          0.00600000	         -0.22621000	          0.00000000	          3.00697600	          0.00000000	
          1.00150000	          0.00000000	          0.00000000	          0.00000000	          1.20482200	          0.00000000	         -0.11727400	          0.00000000	          0.00000000	          0.00000000	         27.10832900	        565.49560400	         19.54129700	          0.93947800	          0.00600000	         -0.22622000	          0.00000000	          3.00441700	          0.00000000	
          1.00200000	          0.00000000	          0.00000000	          0.00000000	          1.20629100	          0.00000000	         -0.11725700	          0.00000000	          0.00000000	          0.00000000	         27.35691900	        566.19009600	         19.61173900	          0.93960900	          0.00600000	         -0.22623100	          0.00000000	          3.00175100	          0.00000000	
          1.00250000	          0.00000000	          0.00000000	          0.00000000	          1.20776100	          0.00000000	         -0.11724100	          0.00000000	          0.00000000	          0.00000000	         27.60641500	        566.88544500	         19.68220100	          0.93974000	          0.00600000	         -0.22624100	          0.00000000	          2.99897800	          0.00000000	
          1.00300000	          0.00000000	          0.00000000	          0.00000000	          1.20923000	          0.00000000	         -0.11722400	          0.00000000	          0.00000000	          0.00000000	         27.85681500	        567.58159500	         19.75267400	          0.93987000	          0.00600000	         -0.22625100	          0.00000000	          2.99609800	          0.00000000	
          1.00350000	          0.00000000	          0.00000000	          0.00000000	          1.21069900	          0.00000000	         -0.11720800	          0.00000000	          0.00000000	          0.00000000	         28.10811900	        568.27848900	         19.82315300	          0.94000000	          0.00600000	         -0.22626000	          0.00000000	          2.99311100	          0.00000000	
          1.00400000	          0.00000000	          0.00000000	          0.00000000	          1.21216800	          0.00000000	         -0.11719100	          0.00000000	          0.00000000	          0.00000000	         28.36032400	        568.97606900	         19.89362900	          0.94012900	          0.00600000	         -0.22627000	          0.00000000	          2.99001700	          0.00000000	
          1.00450000	          0.00000000	          0.00000000	          0.00000000	          1.21363700	          0.00000000	         -0.11717500	          0.00000000	          0.00000000	          0.00000000	         28.61342900	        569.67427700	         19.96409700	          0.94025800	          0.00600000	         -0.22627900	          0.00000000	          2.98681700	          0.00000000	
          1.00500000	          0.00000000	          0.00000000	          0.00000000	          1.21510600	          0.00000000	         -0.11715800	          0.00000000	          0.00000000	          0.00000000	         28.86743300	        570.37305300	         20.03454800	          0.94038700	          0.00600000	         -0.22628900	          0.00000000	          2.98351100	          0.00000000	
